<svg fill="none" height="24" viewBox="0 0 24 24" width="24" xmlns="http://www.w3.org/2000/svg"><g stroke="#ffffff" stroke-linecap="round" stroke-linejoin="round" stroke-width="1.5"><path d="m18.25 15.7499c-1.0148.5405-2.02.5001-3.25.5001-4.0041 0-7.25-3.2459-7.25-7.24999 0-1.23-.04049-2.23527.5-3.25007-2.28875 1.21897-3.5 3.47596-3.5 6.25006 0 4.004 3.24594 7.25 7.25 7.25 2.7741 0 5.031-1.2113 6.25-3.5001z"/><path d="m16 4.75c0 2.20914-1.0409 4.25-3.25 4.25 2.2091 0 3.25 2.0409 3.25 4.25 0-2.2091 1.0409-4.25 3.25-4.25-2.2091 0-3.25-2.04086-3.25-4.25z"/></g></svg>