<svg xmlns="http://www.w3.org/2000/svg"  viewBox="0 0 24 24" width="24px" height="24px"><path d="M 11 0 L 11 3 L 13 3 L 13 0 L 11 0 z M 4.265625 2.8320312 L 2.8515625 4.2460938 L 4.9726562 6.3671875 L 6.3867188 4.953125 L 4.265625 2.8320312 z M 19.753906 2.8515625 L 17.632812 4.9726562 L 19.046875 6.3867188 L 21.167969 4.265625 L 19.753906 2.8515625 z M 12 5 C 8.1458495 5 5 8.1458524 5 12 C 5 15.854148 8.1458495 19 12 19 C 15.854151 19 19 15.854148 19 12 C 19 8.1458524 15.854151 5 12 5 z M 12 7 C 14.773271 7 17 9.2267307 17 12 C 17 14.773269 14.773271 17 12 17 C 9.226729 17 7 14.773269 7 12 C 7 9.2267307 9.226729 7 12 7 z M 0 11 L 0 13 L 3 13 L 3 11 L 0 11 z M 21 11 L 21 13 L 24 13 L 24 11 L 21 11 z M 4.953125 17.613281 L 2.8320312 19.734375 L 4.2460938 21.148438 L 6.3671875 19.027344 L 4.953125 17.613281 z M 19.027344 17.632812 L 17.613281 19.046875 L 19.734375 21.167969 L 21.148438 19.753906 L 19.027344 17.632812 z M 11 21 L 11 24 L 13 24 L 13 21 L 11 21 z"/></svg>